<svg class="animated" id="freepik_stories-filter" xmlns="http://www.w3.org/2000/svg" viewBox="0 0 500 500" version="1.1" xmlns:xlink="http://www.w3.org/1999/xlink" xmlns:svgjs="http://svgjs.com/svgjs"><style>svg#freepik_stories-filter:not(.animated) .animable {opacity: 0;}svg#freepik_stories-filter.animated #freepik--background-simple--inject-2 {animation: 1s 1 forwards cubic-bezier(.36,-0.01,.5,1.38) zoomIn;animation-delay: 0s;}svg#freepik_stories-filter.animated #freepik--device-1--inject-2 {animation: 1s 1 forwards cubic-bezier(.36,-0.01,.5,1.38) lightSpeedLeft;animation-delay: 0s;}svg#freepik_stories-filter.animated #freepik--device-2--inject-2 {animation: 1s 1 forwards cubic-bezier(.36,-0.01,.5,1.38) slideDown;animation-delay: 0s;}svg#freepik_stories-filter.animated #freepik--device-3--inject-2 {animation: 1s 1 forwards cubic-bezier(.36,-0.01,.5,1.38) zoomIn;animation-delay: 0s;}svg#freepik_stories-filter.animated #freepik--Server--inject-2 {animation: 1s 1 forwards cubic-bezier(.36,-0.01,.5,1.38) slideUp;animation-delay: 0s;}svg#freepik_stories-filter.animated #freepik--File--inject-2 {animation: 1s 1 forwards cubic-bezier(.36,-0.01,.5,1.38) lightSpeedRight;animation-delay: 0s;}            @keyframes zoomIn {                0% {                    opacity: 0;                    transform: scale(0.5);                }                100% {                    opacity: 1;                    transform: scale(1);                }            }                    @keyframes lightSpeedLeft {              from {                transform: translate3d(-50%, 0, 0) skewX(20deg);                opacity: 0;              }              60% {                transform: skewX(-10deg);                opacity: 1;              }              80% {                transform: skewX(2deg);              }              to {                opacity: 1;                transform: translate3d(0, 0, 0);              }            }                    @keyframes slideDown {                0% {                    opacity: 0;                    transform: translateY(-30px);                }                100% {                    opacity: 1;                    transform: translateY(0);                }            }                    @keyframes slideUp {                0% {                    opacity: 0;                    transform: translateY(30px);                }                100% {                    opacity: 1;                    transform: inherit;                }            }                    @keyframes lightSpeedRight {              from {                transform: translate3d(50%, 0, 0) skewX(-20deg);                opacity: 0;              }              60% {                transform: skewX(10deg);                opacity: 1;              }              80% {                transform: skewX(-2deg);              }              to {                opacity: 1;                transform: translate3d(0, 0, 0);              }            }        </style><g id="freepik--background-simple--inject-2" class="animable" style="transform-origin: 251.78px 269.508px;"><path d="M429.06,262.72s-12-5.12-12-30.12-2-52.85-28-74.94-47-7.55-87-.61-42-32.91-126-28.74-102,54.5-106,88.79,33,48.58,16,74.83-35,31.57-28,65.06,30,52.79,81,54,80-46.88,110-49.08,46,49.62,115,40.54S472.06,325.56,429.06,262.72Z" style="fill: #6E7479; transform-origin: 251.78px 269.508px;" id="elzl90rnlxhsb" class="animable"></path><g id="elh22ih89yj5l"><path d="M429.06,262.72s-12-5.12-12-30.12-2-52.85-28-74.94-47-7.55-87-.61-42-32.91-126-28.74-102,54.5-106,88.79,33,48.58,16,74.83-35,31.57-28,65.06,30,52.79,81,54,80-46.88,110-49.08,46,49.62,115,40.54S472.06,325.56,429.06,262.72Z" style="fill: rgb(255, 255, 255); opacity: 0.7; transform-origin: 251.78px 269.508px;" class="animable" id="elbqx3we4fkmk"></path></g></g><g id="freepik--device-1--inject-2" class="animable" style="transform-origin: 378.2px 341.725px;"><path d="M340,311.15h80.38a4.29,4.29,0,0,1,4.29,4.29v52.28a0,0,0,0,1,0,0h-89a0,0,0,0,1,0,0V315.44A4.29,4.29,0,0,1,340,311.15Z" style="fill: #6E7479; stroke: rgb(38, 50, 56); stroke-linecap: round; stroke-linejoin: round; transform-origin: 380.17px 339.435px;" id="elo47yxvvqx0r" class="animable"></path><path d="M344.56,315.44H415.8a4.29,4.29,0,0,1,4.29,4.29v48.75a0,0,0,0,1,0,0H340.26a0,0,0,0,1,0,0V319.74A4.3,4.3,0,0,1,344.56,315.44Z" style="fill: rgb(38, 50, 56); stroke: rgb(38, 50, 56); stroke-linecap: round; stroke-linejoin: round; transform-origin: 380.175px 341.96px;" id="elm3h88hy0nd9" class="animable"></path><path d="M423.9,372.3H332.5a7.62,7.62,0,0,1-7.62-7.62H431.52A7.62,7.62,0,0,1,423.9,372.3Z" style="fill: #6E7479; stroke: rgb(38, 50, 56); stroke-linecap: round; stroke-linejoin: round; transform-origin: 378.2px 368.49px;" id="elo037l2yo3d7" class="animable"></path></g><g id="freepik--device-2--inject-2" class="animable" style="transform-origin: 255.56px 341.725px;"><path d="M217.35,311.15h80.38a4.29,4.29,0,0,1,4.29,4.29v52.28a0,0,0,0,1,0,0h-89a0,0,0,0,1,0,0V315.44A4.29,4.29,0,0,1,217.35,311.15Z" style="fill: #6E7479; stroke: rgb(38, 50, 56); stroke-linecap: round; stroke-linejoin: round; transform-origin: 257.52px 339.435px;" id="ele71ua70mao" class="animable"></path><path d="M221.92,315.44h71.24a4.29,4.29,0,0,1,4.29,4.29v48.75a0,0,0,0,1,0,0H217.63a0,0,0,0,1,0,0V319.74A4.29,4.29,0,0,1,221.92,315.44Z" style="fill: rgb(38, 50, 56); stroke: rgb(38, 50, 56); stroke-linecap: round; stroke-linejoin: round; transform-origin: 257.54px 341.96px;" id="el0b02ub5k4st5" class="animable"></path><path d="M301.27,372.3H209.86a7.62,7.62,0,0,1-7.62-7.62H308.88A7.62,7.62,0,0,1,301.27,372.3Z" style="fill: #6E7479; stroke: rgb(38, 50, 56); stroke-linecap: round; stroke-linejoin: round; transform-origin: 255.56px 368.49px;" id="el4ns13pih0x3" class="animable"></path></g><g id="freepik--device-3--inject-2" class="animable" style="transform-origin: 129.88px 341.725px;"><path d="M91.66,311.15H172a4.29,4.29,0,0,1,4.29,4.29v52.28a0,0,0,0,1,0,0h-89a0,0,0,0,1,0,0V315.44A4.29,4.29,0,0,1,91.66,311.15Z" style="fill: #6E7479; stroke: rgb(38, 50, 56); stroke-linecap: round; stroke-linejoin: round; transform-origin: 131.79px 339.435px;" id="elm5vtu728mz" class="animable"></path><path d="M96.23,315.44h71.24a4.29,4.29,0,0,1,4.29,4.29v48.75a0,0,0,0,1,0,0H91.94a0,0,0,0,1,0,0V319.74A4.3,4.3,0,0,1,96.23,315.44Z" style="fill: rgb(38, 50, 56); stroke: rgb(38, 50, 56); stroke-linecap: round; stroke-linejoin: round; transform-origin: 131.85px 341.96px;" id="ell9y28mj2cr" class="animable"></path><path d="M175.58,372.3H84.17a7.62,7.62,0,0,1-7.61-7.62H183.2A7.62,7.62,0,0,1,175.58,372.3Z" style="fill: #6E7479; stroke: rgb(38, 50, 56); stroke-linecap: round; stroke-linejoin: round; transform-origin: 129.88px 368.49px;" id="el2r1o75l8b0t" class="animable"></path><polygon points="143.88 358.68 115.88 358.68 115.88 321.18 135.54 321.18 143.88 328.82 143.88 358.68" style="fill: rgb(255, 255, 255); stroke: rgb(38, 50, 56); stroke-linecap: round; stroke-linejoin: round; transform-origin: 129.88px 339.93px;" id="elm79xjkzip3i" class="animable"></polygon><polygon points="135.54 321.18 135.54 328.82 143.88 328.82 135.54 321.18" style="fill: rgb(255, 255, 255); stroke: rgb(38, 50, 56); stroke-linecap: round; stroke-linejoin: round; transform-origin: 139.71px 325px;" id="elkcbww5cws4o" class="animable"></polygon></g><g id="freepik--Server--inject-2" class="animable" style="transform-origin: 252.06px 242.195px;"><path d="M393,270.08a56.82,56.82,0,0,0-30.3-46.7,56.81,56.81,0,0,0-93.87-61.67A56.83,56.83,0,0,0,161.2,197.28c-1.75-.16-3.51-.26-5.3-.26a56.82,56.82,0,0,0-54.45,73.06Z" style="fill: #6E7479; stroke: rgb(38, 50, 56); stroke-linecap: round; stroke-linejoin: round; transform-origin: 246.04px 198.346px;" id="el5h2g3dra586" class="animable"></path><path d="M224.82,181l2.62-1.2-.56-3.15-2.89-.22a12.37,12.37,0,0,0-1.45-2.74l1.5-2.52-2.26-2.26-2.54,1.51a12.57,12.57,0,0,0-4.85-2l-.73-2.9h-3.2l-.73,2.92a12.72,12.72,0,0,0-2.88.91l-2.28-2L202,169.24l1.08,2.82a13,13,0,0,0-1.84,2.39l-3-.31-1.09,3,2.49,1.69a13.48,13.48,0,0,0-.18,2.12c0,.3,0,.6,0,.9l-2.62,1.46.82,3.09,3,0a12.85,12.85,0,0,0,1.63,2.59L201,191.61l2.45,2.06,2.37-1.7a12.45,12.45,0,0,0,2.86,1.2l.47,2.87,3.19.27,1-2.71a12.45,12.45,0,0,0,3.06-.66l2,2,2.77-1.6-.76-2.75a12.63,12.63,0,0,0,2.12-2.32l2.82.52,1.35-2.89-2.21-1.83A12.66,12.66,0,0,0,224.82,181Zm-4.73-.06a8,8,0,1,1-8-8A8,8,0,0,1,220.09,181Z" style="fill: rgb(38, 50, 56); transform-origin: 212.14px 180.915px;" id="elteg51lyljbl" class="animable"></path><path d="M315.41,228.34l2.62-1.2-.55-3.14-2.89-.23a13.3,13.3,0,0,0-1.45-2.74l1.49-2.52-2.26-2.26-2.54,1.51a12.66,12.66,0,0,0-4.85-2l-.73-2.9h-3.19l-.74,2.92a12.48,12.48,0,0,0-2.87.91l-2.29-2-2.62,1.83,1.08,2.83a12.15,12.15,0,0,0-1.83,2.38l-3-.31-1.1,3,2.49,1.69a13.48,13.48,0,0,0-.17,2.12c0,.31,0,.6,0,.9l-2.62,1.46.83,3.09,3,0a12.85,12.85,0,0,0,1.63,2.59L291.55,239,294,241l2.37-1.7a12.94,12.94,0,0,0,2.86,1.21l.48,2.86,3.18.28,1-2.71a12.36,12.36,0,0,0,3.06-.67l2,2,2.77-1.6-.76-2.75a13,13,0,0,0,2.13-2.32l2.81.52,1.35-2.9L315,231.45A12.33,12.33,0,0,0,315.41,228.34Zm-4.73-.06a8,8,0,1,1-8-8A8,8,0,0,1,310.68,228.28Z" style="fill: rgb(38, 50, 56); transform-origin: 302.71px 228.255px;" id="elj1o4juqz0xk" class="animable"></path><path d="M129.56,253.38v-32.5a9.5,9.5,0,0,1,9.5-9.5h68" style="fill: none; stroke: rgb(38, 50, 56); stroke-linejoin: round; stroke-width: 7px; transform-origin: 168.31px 232.38px;" id="el92weuv9dgkw" class="animable"></path><path d="M308.39,203.55h15a9.67,9.67,0,0,1,9.67,9.67v34.33" style="fill: none; stroke: rgb(38, 50, 56); stroke-linejoin: round; stroke-width: 7px; transform-origin: 320.725px 225.55px;" id="el3r97ohq7jxk" class="animable"></path><path d="M225,119.26v38.07a3.1,3.1,0,0,0,3.1,3.1h12.15a3.1,3.1,0,0,1,3.1,3.1v8.94H210a7.21,7.21,0,0,0-7.21,7.22v51.4a7.21,7.21,0,0,0,7.21,7.22h94.7a7.21,7.21,0,0,0,7.21-7.22v-51.4a7.21,7.21,0,0,0-7.21-7.22H271.31v-8.94a3.1,3.1,0,0,1,3.1-3.1h12.16a3.09,3.09,0,0,0,3.09-3.1V120.2" style="fill: rgb(255, 255, 255); stroke: rgb(38, 50, 56); stroke-linecap: round; stroke-linejoin: round; transform-origin: 257.35px 178.785px;" id="el28yazxr134y" class="animable"></path><path d="M220.05,104.88s20.33,2.49,23.95,24.85" style="fill: none; stroke: rgb(38, 50, 56); stroke-linecap: round; stroke-linejoin: round; stroke-width: 2px; transform-origin: 232.025px 117.305px;" id="elj22d5mpvoqp" class="animable"></path><polygon points="238.8 128.74 244.56 136.88 248.73 127.83 238.8 128.74" style="fill: rgb(38, 50, 56); transform-origin: 243.765px 132.355px;" id="el0o1a8rqa2h" class="animable"></polygon><path d="M279.55,104.88s-21.8,4.09-24.27,41.83" style="fill: none; stroke: rgb(38, 50, 56); stroke-linecap: round; stroke-linejoin: round; stroke-width: 2px; transform-origin: 267.415px 125.795px;" id="elpkgjpdk7db" class="animable"></path><polygon points="250.41 145.06 255.06 153.88 260.37 145.45 250.41 145.06" style="fill: rgb(38, 50, 56); transform-origin: 255.39px 149.47px;" id="elb3q0hhagjwh" class="animable"></polygon><path d="M224.05,88.38s20.33,2.49,23.95,24.85" style="fill: none; stroke: rgb(38, 50, 56); stroke-linecap: round; stroke-linejoin: round; stroke-width: 2px; transform-origin: 236.025px 100.805px;" id="electxl8pmxb" class="animable"></path><polygon points="242.8 112.24 248.56 120.38 252.73 111.33 242.8 112.24" style="fill: rgb(38, 50, 56); transform-origin: 247.765px 115.855px;" id="el19qga0pnink" class="animable"></polygon><path d="M296.55,104.88s-20.32,2.49-23.94,24.85" style="fill: none; stroke: rgb(38, 50, 56); stroke-linecap: round; stroke-linejoin: round; stroke-width: 2px; transform-origin: 284.58px 117.305px;" id="el324poe0zkaz" class="animable"></path><polygon points="267.88 127.83 272.06 136.88 277.81 128.74 267.88 127.83" style="fill: rgb(38, 50, 56); transform-origin: 272.845px 132.355px;" id="ell592uohq7u" class="animable"></polygon><path d="M300,180.87H267.06v-10h-20v10H214.71a5.91,5.91,0,0,0-5.91,5.92V224.7a5.91,5.91,0,0,0,5.91,5.91H300a5.92,5.92,0,0,0,5.92-5.91V186.79A5.92,5.92,0,0,0,300,180.87Z" style="fill: rgb(38, 50, 56); transform-origin: 257.36px 200.74px;" id="elxcv9fh4g7gr" class="animable"></path><line x1="216.18" y1="188.8" x2="229.04" y2="188.8" style="fill: none; stroke: rgb(255, 255, 255); stroke-linecap: round; stroke-linejoin: round; transform-origin: 222.61px 188.8px;" id="el9ezv5ygxc0c" class="animable"></line><line x1="216.18" y1="194.88" x2="248.66" y2="194.88" style="fill: none; stroke: rgb(255, 255, 255); stroke-linecap: round; stroke-linejoin: round; transform-origin: 232.42px 194.88px;" id="elupmrtr33oc" class="animable"></line><line x1="251.09" y1="194.88" x2="260.3" y2="194.88" style="fill: none; stroke: rgb(255, 255, 255); stroke-linecap: round; stroke-linejoin: round; transform-origin: 255.695px 194.88px;" id="eli74j1b0tyt" class="animable"></line><line x1="262.9" y1="194.88" x2="278.36" y2="194.88" style="fill: none; stroke: rgb(255, 255, 255); stroke-linecap: round; stroke-linejoin: round; transform-origin: 270.63px 194.88px;" id="elyf1iohtj6a" class="animable"></line><line x1="240.67" y1="188.8" x2="253.53" y2="188.8" style="fill: none; stroke: rgb(255, 255, 255); stroke-linecap: round; stroke-linejoin: round; transform-origin: 247.1px 188.8px;" id="elo0bbd82v1sl" class="animable"></line><line x1="279.93" y1="188.8" x2="297.99" y2="188.8" style="fill: none; stroke: rgb(255, 255, 255); stroke-linecap: round; stroke-linejoin: round; transform-origin: 288.96px 188.8px;" id="elem8guwba36a" class="animable"></line><line x1="279.93" y1="194.88" x2="297.99" y2="194.88" style="fill: none; stroke: rgb(255, 255, 255); stroke-linecap: round; stroke-linejoin: round; transform-origin: 288.96px 194.88px;" id="elg6a8hnb6alm" class="animable"></line><line x1="232.34" y1="188.8" x2="238.24" y2="188.8" style="fill: none; stroke: rgb(255, 255, 255); stroke-linecap: round; stroke-linejoin: round; transform-origin: 235.29px 188.8px;" id="el8nzl2ou81fu" class="animable"></line><line x1="256.09" y1="188.8" x2="261.99" y2="188.8" style="fill: none; stroke: rgb(255, 255, 255); stroke-linecap: round; stroke-linejoin: round; transform-origin: 259.04px 188.8px;" id="el5hr3ccof5wu" class="animable"></line><line x1="264.6" y1="188.8" x2="268.98" y2="188.8" style="fill: none; stroke: rgb(255, 255, 255); stroke-linecap: round; stroke-linejoin: round; transform-origin: 266.79px 188.8px;" id="el5c1vksf9bid" class="animable"></line><line x1="271.55" y1="188.8" x2="277.45" y2="188.8" style="fill: none; stroke: rgb(255, 255, 255); stroke-linecap: round; stroke-linejoin: round; transform-origin: 274.5px 188.8px;" id="el8ra4wisuztc" class="animable"></line><line x1="297.99" y1="200.44" x2="285.14" y2="200.44" style="fill: none; stroke: rgb(255, 255, 255); stroke-linecap: round; stroke-linejoin: round; transform-origin: 291.565px 200.44px;" id="elgtgrwt3mik" class="animable"></line><line x1="297.99" y1="206.52" x2="265.51" y2="206.52" style="fill: none; stroke: rgb(255, 255, 255); stroke-linecap: round; stroke-linejoin: round; transform-origin: 281.75px 206.52px;" id="el0algy4z5up87" class="animable"></line><line x1="263.08" y1="206.52" x2="253.87" y2="206.52" style="fill: none; stroke: rgb(255, 255, 255); stroke-linecap: round; stroke-linejoin: round; transform-origin: 258.475px 206.52px;" id="elq9k6ij1oae" class="animable"></line><line x1="251.27" y1="206.52" x2="235.81" y2="206.52" style="fill: none; stroke: rgb(255, 255, 255); stroke-linecap: round; stroke-linejoin: round; transform-origin: 243.54px 206.52px;" id="el6w6d2osu993" class="animable"></line><line x1="273.5" y1="200.44" x2="260.65" y2="200.44" style="fill: none; stroke: rgb(255, 255, 255); stroke-linecap: round; stroke-linejoin: round; transform-origin: 267.075px 200.44px;" id="elwpf3y19bjc" class="animable"></line><line x1="234.25" y1="200.44" x2="216.18" y2="200.44" style="fill: none; stroke: rgb(255, 255, 255); stroke-linecap: round; stroke-linejoin: round; transform-origin: 225.215px 200.44px;" id="elhzz6hvrhzcs" class="animable"></line><line x1="234.25" y1="206.52" x2="216.18" y2="206.52" style="fill: none; stroke: rgb(255, 255, 255); stroke-linecap: round; stroke-linejoin: round; transform-origin: 225.215px 206.52px;" id="elld9c8yj6m7" class="animable"></line><line x1="281.84" y1="200.44" x2="275.93" y2="200.44" style="fill: none; stroke: rgb(255, 255, 255); stroke-linecap: round; stroke-linejoin: round; transform-origin: 278.885px 200.44px;" id="elt6kww7r8gnm" class="animable"></line><line x1="258.08" y1="200.44" x2="252.18" y2="200.44" style="fill: none; stroke: rgb(255, 255, 255); stroke-linecap: round; stroke-linejoin: round; transform-origin: 255.13px 200.44px;" id="elvx3k7sax3a" class="animable"></line><line x1="249.57" y1="200.44" x2="245.19" y2="200.44" style="fill: none; stroke: rgb(255, 255, 255); stroke-linecap: round; stroke-linejoin: round; transform-origin: 247.38px 200.44px;" id="el3h84acvjvtn" class="animable"></line><line x1="242.63" y1="200.44" x2="236.72" y2="200.44" style="fill: none; stroke: rgb(255, 255, 255); stroke-linecap: round; stroke-linejoin: round; transform-origin: 239.675px 200.44px;" id="elqhveyh06el" class="animable"></line><line x1="297.99" y1="211.9" x2="285.14" y2="211.9" style="fill: none; stroke: rgb(255, 255, 255); stroke-linecap: round; stroke-linejoin: round; transform-origin: 291.565px 211.9px;" id="el9jhwvpdvphm" class="animable"></line><line x1="216.18" y1="217.98" x2="248.66" y2="217.98" style="fill: none; stroke: rgb(255, 255, 255); stroke-linecap: round; stroke-linejoin: round; transform-origin: 232.42px 217.98px;" id="el2b49hf781ir" class="animable"></line><line x1="251.09" y1="217.98" x2="260.3" y2="217.98" style="fill: none; stroke: rgb(255, 255, 255); stroke-linecap: round; stroke-linejoin: round; transform-origin: 255.695px 217.98px;" id="elt13f62650ce" class="animable"></line><line x1="262.9" y1="217.98" x2="278.36" y2="217.98" style="fill: none; stroke: rgb(255, 255, 255); stroke-linecap: round; stroke-linejoin: round; transform-origin: 270.63px 217.98px;" id="ell9wnel5oqgk" class="animable"></line><line x1="273.5" y1="211.9" x2="260.65" y2="211.9" style="fill: none; stroke: rgb(255, 255, 255); stroke-linecap: round; stroke-linejoin: round; transform-origin: 267.075px 211.9px;" id="eluwg97ccw6q" class="animable"></line><line x1="234.25" y1="211.9" x2="216.18" y2="211.9" style="fill: none; stroke: rgb(255, 255, 255); stroke-linecap: round; stroke-linejoin: round; transform-origin: 225.215px 211.9px;" id="el2vnvlhcxt8" class="animable"></line><line x1="279.93" y1="217.98" x2="297.99" y2="217.98" style="fill: none; stroke: rgb(255, 255, 255); stroke-linecap: round; stroke-linejoin: round; transform-origin: 288.96px 217.98px;" id="elov2ygs9408o" class="animable"></line><line x1="281.84" y1="211.9" x2="275.93" y2="211.9" style="fill: none; stroke: rgb(255, 255, 255); stroke-linecap: round; stroke-linejoin: round; transform-origin: 278.885px 211.9px;" id="elmk93tou3nt" class="animable"></line><line x1="258.08" y1="211.9" x2="252.18" y2="211.9" style="fill: none; stroke: rgb(255, 255, 255); stroke-linecap: round; stroke-linejoin: round; transform-origin: 255.13px 211.9px;" id="elmuoaaiyomd" class="animable"></line><line x1="249.57" y1="211.9" x2="245.19" y2="211.9" style="fill: none; stroke: rgb(255, 255, 255); stroke-linecap: round; stroke-linejoin: round; transform-origin: 247.38px 211.9px;" id="eljvrqz370cgq" class="animable"></line><line x1="242.63" y1="211.9" x2="236.72" y2="211.9" style="fill: none; stroke: rgb(255, 255, 255); stroke-linecap: round; stroke-linejoin: round; transform-origin: 239.675px 211.9px;" id="eln63l4w13zp" class="animable"></line><line x1="297.99" y1="223.37" x2="285.14" y2="223.37" style="fill: none; stroke: rgb(255, 255, 255); stroke-linecap: round; stroke-linejoin: round; transform-origin: 291.565px 223.37px;" id="elkt5std43a9" class="animable"></line><line x1="273.5" y1="223.37" x2="260.65" y2="223.37" style="fill: none; stroke: rgb(255, 255, 255); stroke-linecap: round; stroke-linejoin: round; transform-origin: 267.075px 223.37px;" id="eldy5cgxmlfnb" class="animable"></line><line x1="234.25" y1="223.37" x2="216.18" y2="223.37" style="fill: none; stroke: rgb(255, 255, 255); stroke-linecap: round; stroke-linejoin: round; transform-origin: 225.215px 223.37px;" id="elwz8580tpygl" class="animable"></line><line x1="281.84" y1="223.37" x2="275.93" y2="223.37" style="fill: none; stroke: rgb(255, 255, 255); stroke-linecap: round; stroke-linejoin: round; transform-origin: 278.885px 223.37px;" id="elld7hea0t13" class="animable"></line><line x1="258.08" y1="223.37" x2="252.18" y2="223.37" style="fill: none; stroke: rgb(255, 255, 255); stroke-linecap: round; stroke-linejoin: round; transform-origin: 255.13px 223.37px;" id="elwwxdykq34po" class="animable"></line><line x1="249.57" y1="223.37" x2="245.19" y2="223.37" style="fill: none; stroke: rgb(255, 255, 255); stroke-linecap: round; stroke-linejoin: round; transform-origin: 247.38px 223.37px;" id="el4yec8s5mt9p" class="animable"></line><line x1="242.63" y1="223.37" x2="236.72" y2="223.37" style="fill: none; stroke: rgb(255, 255, 255); stroke-linecap: round; stroke-linejoin: round; transform-origin: 239.675px 223.37px;" id="elv12fgs3uhmd" class="animable"></line><path d="M187.65,240.22l3.74-1.7L190.6,234l-4.12-.32a17.94,17.94,0,0,0-2.06-3.9l2.12-3.59L183.32,223l-3.61,2.15a18.12,18.12,0,0,0-6.9-2.82l-1-4.12h-4.55l-1.05,4.15a17.74,17.74,0,0,0-4.09,1.3l-3.25-2.81-3.73,2.6,1.53,4a18.77,18.77,0,0,0-2.61,3.39l-4.28-.44-1.56,4.27,3.55,2.41a17.67,17.67,0,0,0-.26,3c0,.43,0,.86.05,1.28l-3.73,2.08,1.18,4.4,4.22-.06a18.22,18.22,0,0,0,2.32,3.69l-1.82,3.79,3.48,2.92,3.38-2.42a17.65,17.65,0,0,0,4.07,1.72l.68,4.08,4.53.39,1.37-3.85a18.13,18.13,0,0,0,4.36-1l2.86,2.91,3.94-2.28-1.08-3.92a17.87,17.87,0,0,0,3-3.3l4,.74,1.92-4.12-3.14-2.59A18,18,0,0,0,187.65,240.22Zm-6.73-.08a11.36,11.36,0,1,1-11.36-11.36A11.36,11.36,0,0,1,180.92,240.14Z" style="fill: rgb(38, 50, 56); transform-origin: 169.61px 240.08px;" id="eltkmz8x7xvmc" class="animable"></path><path d="M112.25,270.08h6.8a11.35,11.35,0,0,1,22.37,0H152l-.74-4.18-4.11-.32a18,18,0,0,0-2.07-3.9l2.13-3.59L144,254.87,140.38,257a18,18,0,0,0-6.9-2.82l-1-4.12h-4.55l-1,4.15a18,18,0,0,0-4.1,1.3l-3.25-2.82-3.72,2.61,1.53,4a17.9,17.9,0,0,0-2.61,3.39l-4.29-.44-1.55,4.27,3.54,2.41C112.33,269.34,112.29,269.71,112.25,270.08Z" style="fill: rgb(38, 50, 56); transform-origin: 130.47px 260.07px;" id="elsgbe858s78" class="animable"></path><rect x="339.72" y="252.22" width="20" height="8" style="fill: rgb(255, 255, 255); stroke: rgb(38, 50, 56); stroke-linecap: round; stroke-linejoin: round; transform-origin: 349.72px 256.22px;" id="el5uok75snwmf" class="animable"></rect><rect x="354.39" y="240.74" width="21.33" height="29.33" style="fill: rgb(255, 255, 255); stroke: rgb(38, 50, 56); stroke-linecap: round; stroke-linejoin: round; transform-origin: 365.055px 255.405px;" id="elv6ba5zcx85h" class="animable"></rect><polyline points="321.06 252.75 299.06 252.75 299.06 244.81 257.55 244.81 257.55 252.22" style="fill: none; stroke: rgb(38, 50, 56); stroke-linecap: round; stroke-linejoin: round; stroke-width: 2px; transform-origin: 289.305px 248.78px;" id="elb3j3r1mctwc" class="animable"></polyline><line x1="321.72" y1="264.22" x2="273.72" y2="264.22" style="fill: none; stroke: rgb(38, 50, 56); stroke-linecap: round; stroke-linejoin: round; stroke-width: 2px; transform-origin: 297.72px 264.22px;" id="elhgdfp4hxirt" class="animable"></line><rect x="270.39" y="254.6" width="14.67" height="15.47" style="fill: rgb(255, 255, 255); stroke: rgb(38, 50, 56); stroke-linecap: round; stroke-linejoin: round; transform-origin: 277.725px 262.335px;" id="el7mcktt55zd" class="animable"></rect><rect x="238.39" y="249.55" width="39.33" height="42.67" style="fill: rgb(255, 255, 255); stroke: rgb(38, 50, 56); stroke-linecap: round; stroke-linejoin: round; transform-origin: 258.055px 270.885px;" id="eln5der0xls3l" class="animable"></rect><rect x="241.72" y="249.55" width="32.67" height="42.67" style="fill: rgb(255, 255, 255); stroke: rgb(38, 50, 56); stroke-linecap: round; stroke-linejoin: round; transform-origin: 258.055px 270.885px;" id="elizaytkwscsl" class="animable"></rect><circle cx="299.05" cy="252.27" r="2.75" style="fill: rgb(38, 50, 56); transform-origin: 299.05px 252.27px;" id="elvftwfds7kk" class="animable"></circle><circle cx="257.64" cy="244.81" r="2.75" style="fill: rgb(38, 50, 56); transform-origin: 257.64px 244.81px;" id="elnkfjdj10nkf" class="animable"></circle><rect x="318.39" y="240.74" width="28.67" height="29.33" style="fill: rgb(255, 255, 255); stroke: rgb(38, 50, 56); stroke-linecap: round; stroke-linejoin: round; transform-origin: 332.725px 255.405px;" id="eleh8njaptxnr" class="animable"></rect><rect x="238.39" y="249.55" width="39.33" height="6.89" style="fill: rgb(38, 50, 56); stroke: rgb(38, 50, 56); stroke-linecap: round; stroke-linejoin: round; transform-origin: 258.055px 252.995px;" id="eljrpsspe08op" class="animable"></rect><polygon points="344.07 251.97 333.45 251.97 333.45 247.99 319.64 255.97 333.45 263.95 333.45 259.97 344.07 259.97 344.07 251.97" style="fill: rgb(38, 50, 56); transform-origin: 331.855px 255.97px;" id="el5y9yrj0spjl" class="animable"></polygon><polygon points="252.85 261.76 252.85 272.37 248.87 272.37 256.85 286.19 264.83 272.37 260.85 272.37 260.85 261.76 252.85 261.76" style="fill: rgb(38, 50, 56); transform-origin: 256.85px 273.975px;" id="elh6wz9cbpp5a" class="animable"></polygon><line x1="342.9" y1="207.37" x2="342.9" y2="223.18" style="fill: none; stroke: rgb(38, 50, 56); stroke-miterlimit: 10; transform-origin: 342.9px 215.275px;" id="ely4m916rc9p" class="animable"></line><polygon points="340.41 222.45 342.9 226.77 345.4 222.45 340.41 222.45" style="fill: rgb(38, 50, 56); transform-origin: 342.905px 224.61px;" id="elpqdzrz7i5f" class="animable"></polygon><path d="M335.39,186.09a12.3,12.3,0,0,1,7.51,11.34v3.38" style="fill: none; stroke: rgb(38, 50, 56); stroke-miterlimit: 10; transform-origin: 339.145px 193.45px;" id="elr8g899lknbj" class="animable"></path><polygon points="340.41 200.08 342.9 204.4 345.4 200.08 340.41 200.08" style="fill: rgb(38, 50, 56); transform-origin: 342.905px 202.24px;" id="ell79lv55g7g" class="animable"></polygon><line x1="316.88" y1="185.12" x2="327.01" y2="185.12" style="fill: none; stroke: rgb(38, 50, 56); stroke-miterlimit: 10; transform-origin: 321.945px 185.12px;" id="elzl6g2hfwzg" class="animable"></line><polygon points="326.28 187.62 330.6 185.13 326.28 182.63 326.28 187.62" style="fill: rgb(38, 50, 56); transform-origin: 328.44px 185.125px;" id="elqel9o1vh01" class="animable"></polygon><g id="elsnvy8zburv"><circle cx="93.8" cy="384.06" r="7.8" style="fill: rgb(38, 50, 56); transform-origin: 93.8px 384.06px; transform: rotate(-45.74deg);" class="animable" id="elzxq6xp9het"></circle></g><path d="M96.13,384.06a2.34,2.34,0,1,0-2.33,2.34A2.33,2.33,0,0,0,96.13,384.06Z" style="fill: rgb(255, 255, 255); transform-origin: 93.79px 384.06px;" id="el69p7duf75yx" class="animable"></path><g id="elcajo7xljdy"><circle cx="139.01" cy="384.06" r="7.8" style="fill: rgb(38, 50, 56); transform-origin: 139.01px 384.06px; transform: rotate(-45deg);" class="animable" id="el8a09iuntw9"></circle></g><path d="M141.35,384.06A2.34,2.34,0,1,0,139,386.4,2.34,2.34,0,0,0,141.35,384.06Z" style="fill: rgb(255, 255, 255); transform-origin: 139.01px 384.06px;" id="elys21h5uby68" class="animable"></path><g id="ell7fxsedgpb"><circle cx="184.23" cy="384.06" r="7.8" style="fill: rgb(38, 50, 56); transform-origin: 184.23px 384.06px; transform: rotate(-13.33deg);" class="animable" id="elmtagdu2tmh"></circle></g><path d="M186.57,384.06a2.34,2.34,0,1,0-2.34,2.34A2.34,2.34,0,0,0,186.57,384.06Z" style="fill: rgb(255, 255, 255); transform-origin: 184.23px 384.06px;" id="elvrrvdybxnwk" class="animable"></path><g id="elvt1knqjckuq"><circle cx="229.45" cy="384.06" r="7.8" style="fill: rgb(38, 50, 56); transform-origin: 229.45px 384.06px; transform: rotate(-13.33deg);" class="animable" id="el1n0v6x59w9a"></circle></g><path d="M231.79,384.06a2.34,2.34,0,1,0-2.34,2.34A2.34,2.34,0,0,0,231.79,384.06Z" style="fill: rgb(255, 255, 255); transform-origin: 229.45px 384.06px;" id="eld352jy1m0nu" class="animable"></path><g id="elqwo0j0x9qvl"><circle cx="274.66" cy="384.06" r="7.8" style="fill: rgb(38, 50, 56); transform-origin: 274.66px 384.06px; transform: rotate(-9.24deg);" class="animable" id="elh3ppdahor25"></circle></g><path d="M277,384.06a2.34,2.34,0,1,0-2.34,2.34A2.34,2.34,0,0,0,277,384.06Z" style="fill: rgb(255, 255, 255); transform-origin: 274.66px 384.06px;" id="elvfzcp5dqv3e" class="animable"></path><g id="elmtmjjo0ghia"><circle cx="319.88" cy="384.06" r="7.8" style="fill: rgb(38, 50, 56); transform-origin: 319.88px 384.06px; transform: rotate(-45deg);" class="animable" id="el0x6m735wq16k"></circle></g><path d="M322.22,384.06a2.34,2.34,0,1,0-2.34,2.34A2.34,2.34,0,0,0,322.22,384.06Z" style="fill: rgb(255, 255, 255); transform-origin: 319.88px 384.06px;" id="eloko3wtx8f0k" class="animable"></path><g id="elutcebu54hsc"><circle cx="365.1" cy="384.06" r="7.8" style="fill: rgb(38, 50, 56); transform-origin: 365.1px 384.06px; transform: rotate(-45deg);" class="animable" id="elezwd7asdl7w"></circle></g><path d="M367.44,384.06a2.34,2.34,0,1,0-2.34,2.34A2.34,2.34,0,0,0,367.44,384.06Z" style="fill: rgb(255, 255, 255); transform-origin: 365.1px 384.06px;" id="elssngujew4gm" class="animable"></path><g id="elrim3z38ky5b"><circle cx="410.31" cy="384.06" r="7.8" style="fill: rgb(38, 50, 56); transform-origin: 410.31px 384.06px; transform: rotate(-11.73deg);" class="animable" id="ele2ke2hcfpy5"></circle></g><path d="M412.65,384.06a2.34,2.34,0,1,0-2.33,2.34A2.33,2.33,0,0,0,412.65,384.06Z" style="fill: rgb(255, 255, 255); transform-origin: 410.31px 384.06px;" id="ellhayvoczk6" class="animable"></path><rect x="69.06" y="373.01" width="366" height="6" style="fill: rgb(38, 50, 56); stroke: rgb(38, 50, 56); stroke-linecap: round; stroke-linejoin: round; transform-origin: 252.06px 376.01px;" id="el1z19i0yzssg" class="animable"></rect><line x1="77.06" y1="378.85" x2="77.06" y2="373.02" style="fill: none; stroke: rgb(255, 255, 255); stroke-linejoin: round; transform-origin: 77.06px 375.935px;" id="elsjuei3nejkj" class="animable"></line><line x1="91.06" y1="378.85" x2="91.06" y2="373.02" style="fill: none; stroke: rgb(255, 255, 255); stroke-linejoin: round; transform-origin: 91.06px 375.935px;" id="elw5pfvn7sw8q" class="animable"></line><line x1="105.06" y1="378.85" x2="105.06" y2="373.02" style="fill: none; stroke: rgb(255, 255, 255); stroke-linejoin: round; transform-origin: 105.06px 375.935px;" id="elkjddib1ucw" class="animable"></line><line x1="119.06" y1="378.85" x2="119.06" y2="373.02" style="fill: none; stroke: rgb(255, 255, 255); stroke-linejoin: round; transform-origin: 119.06px 375.935px;" id="elunxdkr7rrt" class="animable"></line><line x1="133.06" y1="378.85" x2="133.06" y2="373.02" style="fill: none; stroke: rgb(255, 255, 255); stroke-linejoin: round; transform-origin: 133.06px 375.935px;" id="el5tdnxk1a13e" class="animable"></line><line x1="147.06" y1="378.85" x2="147.06" y2="373.02" style="fill: none; stroke: rgb(255, 255, 255); stroke-linejoin: round; transform-origin: 147.06px 375.935px;" id="elckcrjvx76zw" class="animable"></line><line x1="161.06" y1="378.85" x2="161.06" y2="373.02" style="fill: none; stroke: rgb(255, 255, 255); stroke-linejoin: round; transform-origin: 161.06px 375.935px;" id="elklm7maydol" class="animable"></line><line x1="175.06" y1="378.85" x2="175.06" y2="373.02" style="fill: none; stroke: rgb(255, 255, 255); stroke-linejoin: round; transform-origin: 175.06px 375.935px;" id="el711zakld41q" class="animable"></line><line x1="189.06" y1="378.85" x2="189.06" y2="373.02" style="fill: none; stroke: rgb(255, 255, 255); stroke-linejoin: round; transform-origin: 189.06px 375.935px;" id="elsupq06frda" class="animable"></line><line x1="203.06" y1="378.85" x2="203.06" y2="373.02" style="fill: none; stroke: rgb(255, 255, 255); stroke-linejoin: round; transform-origin: 203.06px 375.935px;" id="el3xt6gpixxt6" class="animable"></line><line x1="217.06" y1="373.02" x2="217.06" y2="378.85" style="fill: none; stroke: rgb(255, 255, 255); stroke-linejoin: round; transform-origin: 217.06px 375.935px;" id="elp2hc9dyhhec" class="animable"></line><line x1="231.06" y1="378.85" x2="231.06" y2="373.02" style="fill: none; stroke: rgb(255, 255, 255); stroke-linejoin: round; transform-origin: 231.06px 375.935px;" id="elz7gajc483u8" class="animable"></line><line x1="245.06" y1="378.85" x2="245.06" y2="373.02" style="fill: none; stroke: rgb(255, 255, 255); stroke-linejoin: round; transform-origin: 245.06px 375.935px;" id="elq7w1asuum1o" class="animable"></line><line x1="259.06" y1="378.85" x2="259.06" y2="373.02" style="fill: none; stroke: rgb(255, 255, 255); stroke-linejoin: round; transform-origin: 259.06px 375.935px;" id="elo53pz6ahwg" class="animable"></line><line x1="273.06" y1="378.85" x2="273.06" y2="373.02" style="fill: none; stroke: rgb(255, 255, 255); stroke-linejoin: round; transform-origin: 273.06px 375.935px;" id="elmcr5fzazupb" class="animable"></line><line x1="287.06" y1="378.85" x2="287.06" y2="373.02" style="fill: none; stroke: rgb(255, 255, 255); stroke-linejoin: round; transform-origin: 287.06px 375.935px;" id="el5qaxo6nikzo" class="animable"></line><line x1="301.06" y1="378.85" x2="301.06" y2="373.02" style="fill: none; stroke: rgb(255, 255, 255); stroke-linejoin: round; transform-origin: 301.06px 375.935px;" id="elwoheh2iu5wd" class="animable"></line><line x1="315.06" y1="378.85" x2="315.06" y2="373.02" style="fill: none; stroke: rgb(255, 255, 255); stroke-linejoin: round; transform-origin: 315.06px 375.935px;" id="elzgeh77xehfa" class="animable"></line><line x1="329.06" y1="378.85" x2="329.06" y2="373.02" style="fill: none; stroke: rgb(255, 255, 255); stroke-linejoin: round; transform-origin: 329.06px 375.935px;" id="elkmcsfdm0mk" class="animable"></line><line x1="343.06" y1="378.85" x2="343.06" y2="373.02" style="fill: none; stroke: rgb(255, 255, 255); stroke-linejoin: round; transform-origin: 343.06px 375.935px;" id="elxxs8fwe10d8" class="animable"></line><line x1="357.06" y1="378.85" x2="357.06" y2="373.02" style="fill: none; stroke: rgb(255, 255, 255); stroke-linejoin: round; transform-origin: 357.06px 375.935px;" id="elyuc00dizr88" class="animable"></line><line x1="371.06" y1="378.85" x2="371.06" y2="373.02" style="fill: none; stroke: rgb(255, 255, 255); stroke-linejoin: round; transform-origin: 371.06px 375.935px;" id="el89zptwlhg6h" class="animable"></line><line x1="385.06" y1="378.85" x2="385.06" y2="373.02" style="fill: none; stroke: rgb(255, 255, 255); stroke-linejoin: round; transform-origin: 385.06px 375.935px;" id="ely20mr597do" class="animable"></line><line x1="399.06" y1="378.85" x2="399.06" y2="373.02" style="fill: none; stroke: rgb(255, 255, 255); stroke-linejoin: round; transform-origin: 399.06px 375.935px;" id="elrfthqdn887" class="animable"></line><line x1="413.06" y1="378.85" x2="413.06" y2="373.02" style="fill: none; stroke: rgb(255, 255, 255); stroke-linejoin: round; transform-origin: 413.06px 375.935px;" id="elk06zvm0cpf" class="animable"></line><line x1="427.06" y1="378.85" x2="427.06" y2="373.02" style="fill: none; stroke: rgb(255, 255, 255); stroke-linejoin: round; transform-origin: 427.06px 375.935px;" id="elquanup8s5w" class="animable"></line><rect x="69.06" y="390.01" width="366" height="6" style="fill: rgb(38, 50, 56); stroke: rgb(38, 50, 56); stroke-linecap: round; stroke-linejoin: round; transform-origin: 252.06px 393.01px;" id="ell2d6urw7ia" class="animable"></rect><line x1="77.06" y1="395.85" x2="77.06" y2="390.02" style="fill: none; stroke: rgb(255, 255, 255); stroke-linejoin: round; transform-origin: 77.06px 392.935px;" id="elo01wifidngi" class="animable"></line><line x1="91.06" y1="395.85" x2="91.06" y2="390.02" style="fill: none; stroke: rgb(255, 255, 255); stroke-linejoin: round; transform-origin: 91.06px 392.935px;" id="el1l9w5snp1m2" class="animable"></line><line x1="105.06" y1="395.85" x2="105.06" y2="390.02" style="fill: none; stroke: rgb(255, 255, 255); stroke-linejoin: round; transform-origin: 105.06px 392.935px;" id="el4508cr590o" class="animable"></line><line x1="119.06" y1="395.85" x2="119.06" y2="390.02" style="fill: none; stroke: rgb(255, 255, 255); stroke-linejoin: round; transform-origin: 119.06px 392.935px;" id="elj3gjlcs3e4t" class="animable"></line><line x1="133.06" y1="395.85" x2="133.06" y2="390.02" style="fill: none; stroke: rgb(255, 255, 255); stroke-linejoin: round; transform-origin: 133.06px 392.935px;" id="elw390k7e6bmg" class="animable"></line><line x1="147.06" y1="395.85" x2="147.06" y2="390.02" style="fill: none; stroke: rgb(255, 255, 255); stroke-linejoin: round; transform-origin: 147.06px 392.935px;" id="el3x7fp6ipfkt" class="animable"></line><line x1="161.06" y1="395.85" x2="161.06" y2="390.02" style="fill: none; stroke: rgb(255, 255, 255); stroke-linejoin: round; transform-origin: 161.06px 392.935px;" id="elrlcd8tusshb" class="animable"></line><line x1="175.06" y1="395.85" x2="175.06" y2="390.02" style="fill: none; stroke: rgb(255, 255, 255); stroke-linejoin: round; transform-origin: 175.06px 392.935px;" id="elxgjqd0f5x5l" class="animable"></line><line x1="189.06" y1="395.85" x2="189.06" y2="390.02" style="fill: none; stroke: rgb(255, 255, 255); stroke-linejoin: round; transform-origin: 189.06px 392.935px;" id="el09fem1m11lp5" class="animable"></line><line x1="203.06" y1="395.85" x2="203.06" y2="390.02" style="fill: none; stroke: rgb(255, 255, 255); stroke-linejoin: round; transform-origin: 203.06px 392.935px;" id="elktgxeyxbjrc" class="animable"></line><line x1="217.06" y1="395.85" x2="217.06" y2="390.02" style="fill: none; stroke: rgb(255, 255, 255); stroke-linejoin: round; transform-origin: 217.06px 392.935px;" id="elhksm5mokao" class="animable"></line><line x1="231.06" y1="395.85" x2="231.06" y2="390.02" style="fill: none; stroke: rgb(255, 255, 255); stroke-linejoin: round; transform-origin: 231.06px 392.935px;" id="elmqw9v0g83e" class="animable"></line><line x1="245.06" y1="395.85" x2="245.06" y2="390.02" style="fill: none; stroke: rgb(255, 255, 255); stroke-linejoin: round; transform-origin: 245.06px 392.935px;" id="elzcg504yd72" class="animable"></line><line x1="259.06" y1="395.85" x2="259.06" y2="390.02" style="fill: none; stroke: rgb(255, 255, 255); stroke-linejoin: round; transform-origin: 259.06px 392.935px;" id="elm3oxfx7w0nb" class="animable"></line><line x1="273.06" y1="395.85" x2="273.06" y2="390.02" style="fill: none; stroke: rgb(255, 255, 255); stroke-linejoin: round; transform-origin: 273.06px 392.935px;" id="elycdajt8rqkm" class="animable"></line><line x1="287.06" y1="395.85" x2="287.06" y2="390.02" style="fill: none; stroke: rgb(255, 255, 255); stroke-linejoin: round; transform-origin: 287.06px 392.935px;" id="eljm6d7rhpsbl" class="animable"></line><line x1="301.06" y1="395.85" x2="301.06" y2="390.02" style="fill: none; stroke: rgb(255, 255, 255); stroke-linejoin: round; transform-origin: 301.06px 392.935px;" id="elrp6ud8lt8mb" class="animable"></line><line x1="315.06" y1="395.85" x2="315.06" y2="390.02" style="fill: none; stroke: rgb(255, 255, 255); stroke-linejoin: round; transform-origin: 315.06px 392.935px;" id="elxc0g0osw2qd" class="animable"></line><line x1="329.06" y1="395.85" x2="329.06" y2="390.02" style="fill: none; stroke: rgb(255, 255, 255); stroke-linejoin: round; transform-origin: 329.06px 392.935px;" id="elyczxj0ttun9" class="animable"></line><line x1="343.06" y1="395.85" x2="343.06" y2="390.02" style="fill: none; stroke: rgb(255, 255, 255); stroke-linejoin: round; transform-origin: 343.06px 392.935px;" id="ellzeobrqmck8" class="animable"></line><line x1="357.06" y1="395.85" x2="357.06" y2="390.02" style="fill: none; stroke: rgb(255, 255, 255); stroke-linejoin: round; transform-origin: 357.06px 392.935px;" id="elgej8tncu1ih" class="animable"></line><line x1="371.06" y1="395.85" x2="371.06" y2="390.02" style="fill: none; stroke: rgb(255, 255, 255); stroke-linejoin: round; transform-origin: 371.06px 392.935px;" id="eloz9zkhne3s9" class="animable"></line><line x1="385.06" y1="395.85" x2="385.06" y2="390.02" style="fill: none; stroke: rgb(255, 255, 255); stroke-linejoin: round; transform-origin: 385.06px 392.935px;" id="elwk7sae9qrb" class="animable"></line><line x1="399.06" y1="395.85" x2="399.06" y2="390.02" style="fill: none; stroke: rgb(255, 255, 255); stroke-linejoin: round; transform-origin: 399.06px 392.935px;" id="el32cdjn7osg2" class="animable"></line><line x1="413.06" y1="395.85" x2="413.06" y2="390.02" style="fill: none; stroke: rgb(255, 255, 255); stroke-linejoin: round; transform-origin: 413.06px 392.935px;" id="elostmil37erq" class="animable"></line><line x1="427.06" y1="395.85" x2="427.06" y2="390.02" style="fill: none; stroke: rgb(255, 255, 255); stroke-linejoin: round; transform-origin: 427.06px 392.935px;" id="elnl7ox667de" class="animable"></line></g><g id="freepik--File--inject-2" class="animable" style="transform-origin: 258.57px 307.395px;"><polygon points="272.57 326.15 244.57 326.15 244.57 288.64 264.23 288.64 272.57 296.28 272.57 326.15" style="fill: rgb(255, 255, 255); stroke: rgb(38, 50, 56); stroke-linecap: round; stroke-linejoin: round; transform-origin: 258.57px 307.395px;" id="el5kb5u4flk54" class="animable"></polygon><polygon points="264.23 288.64 264.23 296.28 272.57 296.28 264.23 288.64" style="fill: rgb(255, 255, 255); stroke: rgb(38, 50, 56); stroke-linecap: round; stroke-linejoin: round; transform-origin: 268.4px 292.46px;" id="el4sqe7rkrqfw" class="animable"></polygon></g><defs>     <filter id="active" height="200%">         <feMorphology in="SourceAlpha" result="DILATED" operator="dilate" radius="2"></feMorphology>                <feFlood flood-color="#32DFEC" flood-opacity="1" result="PINK"></feFlood>        <feComposite in="PINK" in2="DILATED" operator="in" result="OUTLINE"></feComposite>        <feMerge>            <feMergeNode in="OUTLINE"></feMergeNode>            <feMergeNode in="SourceGraphic"></feMergeNode>        </feMerge>    </filter>    <filter id="hover" height="200%">        <feMorphology in="SourceAlpha" result="DILATED" operator="dilate" radius="2"></feMorphology>                <feFlood flood-color="#ff0000" flood-opacity="0.5" result="PINK"></feFlood>        <feComposite in="PINK" in2="DILATED" operator="in" result="OUTLINE"></feComposite>        <feMerge>            <feMergeNode in="OUTLINE"></feMergeNode>            <feMergeNode in="SourceGraphic"></feMergeNode>        </feMerge>            <feColorMatrix type="matrix" values="0   0   0   0   0                0   1   0   0   0                0   0   0   0   0                0   0   0   1   0 "></feColorMatrix>    </filter></defs></svg>