<svg xmlns="http://www.w3.org/2000/svg" xmlns:xlink="http://www.w3.org/1999/xlink" width="227" height="265" viewBox="0 0 227 265">
  <defs>
    <clipPath id="clip-liter">
      <rect width="227" height="265"/>
    </clipPath>
  </defs>
  <g id="liter" clip-path="url(#clip-liter)">
    <rect width="227" height="265" fill="rgba(255,255,255,0)"/>
    <g id="Group_312" data-name="Group 312" transform="translate(4 -119)">
      <g id="Group_311" data-name="Group 311" transform="translate(29 46)">
        <g id="Path_557" data-name="Path 557" transform="translate(-15 80.333)" fill="#d3bf9a">
          <path d="M 52.99490356445313 128.4649505615234 C 36.93765258789063 128.4649505615234 10.00001430511475 123.7374725341797 10.00001430511475 92.07608795166016 C 10.00001430511475 70.58705902099609 36.53520584106445 34.64026641845703 52.99490356445313 15.1511812210083 C 69.45460510253906 34.64026641845703 95.98982238769531 70.58705902099609 95.98982238769531 92.07608795166016 C 95.98982238769531 123.7374725341797 69.05215454101563 128.4649505615234 52.99490356445313 128.4649505615234 Z" stroke="none"/>
          <path d="M 52.99489212036133 30.90395355224609 C 36.41058349609375 51.95899200439453 19.99997711181641 77.95172882080078 19.99997711181641 92.07609558105469 C 19.99997711181641 98.60293579101563 19.99997711181641 118.4649353027344 52.99490356445313 118.4649353027344 C 85.98979187011719 118.4649353027344 85.98979187011719 98.60293579101563 85.98979187011719 92.07609558105469 C 85.98979187011719 77.95172882080078 69.57917785644531 51.95899200439453 52.99489212036133 30.90395355224609 M 52.99490356445313 1.52587890625e-05 C 52.99490356445313 1.52587890625e-05 105.9897918701172 57.45986175537109 105.9897918701172 92.07609558105469 C 105.9897918701172 126.6923217773438 79.49236297607422 138.4649353027344 52.99490356445313 138.4649353027344 C 26.49744415283203 138.4649353027344 -2.288818359375e-05 126.6923217773438 -2.288818359375e-05 92.07609558105469 C -2.288818359375e-05 57.45986175537109 52.99490356445313 1.52587890625e-05 52.99490356445313 1.52587890625e-05 Z" stroke="none" fill="#8c6955"/>
        </g>
        <g id="Path_558" data-name="Path 558" transform="translate(4.873 106.61)" fill="#d3bf9a">
          <path d="M 85.78549957275391 214.1401672363281 C 62.99903869628906 214.1401672363281 10 207.7975463867188 10 149.0481567382813 C 10 110.2734527587891 59.34158325195313 45.45901107788086 85.78350830078125 15.01588726043701 C 112.2244873046875 45.47211456298828 161.5709991455078 110.3110504150391 161.5709991455078 149.0481567382813 C 161.5709991455078 207.7975463867188 108.5719604492188 214.1401672363281 85.78549957275391 214.1401672363281 Z" stroke="none"/>
          <path d="M 85.77812194824219 30.386962890625 C 55.90682983398438 66.22615051269531 20 119.0886611938477 20 149.0481872558594 C 20 194.5822296142578 55.77445220947266 204.1401824951172 85.78549957275391 204.1401824951172 C 115.7965545654297 204.1401824951172 151.5709991455078 194.5822296142578 151.5709991455078 149.0481872558594 C 151.5709991455078 119.1498794555664 115.6534576416016 66.25961303710938 85.77812194824219 30.386962890625 M 85.78549957275391 -1.52587890625e-05 C 85.78549957275391 -1.52587890625e-05 171.5709991455078 93.01313781738281 171.5709991455078 149.0481872558594 C 171.5709991455078 205.0831909179688 128.6782531738281 224.1401824951172 85.78549957275391 224.1401824951172 C 42.89274597167969 224.1401824951172 0 205.0831909179688 0 149.0481872558594 C 0 93.01313781738281 85.78549957275391 -1.52587890625e-05 85.78549957275391 -1.52587890625e-05 Z" stroke="none" fill="#8c6955"/>
        </g>
      </g>
      <text id="LITER-2" data-name="LITER" transform="translate(83 304)" fill="#8c6955" font-size="29" font-family="Poppins-SemiBoldItalic, Poppins" font-weight="600" font-style="italic"><tspan x="0" y="0">LITER</tspan></text>
    </g>
  </g>
</svg>
